<svg xmlns="http://www.w3.org/2000/svg" width="60" height="60" viewBox="0 0 60 60">
    <g fill="none" fill-rule="nonzero">
        <circle cx="30" cy="30" r="30" fill="#90DFAA"/>
        <path fill="#E6E9EE" d="M54.142 47.717C48.709 55.134 39.874 60 29.952 60c-9.92 0-18.708-4.819-24.188-12.283 4.252-4.536 10.016-6.945 14.834-8.174-.425 3.45 1.37 8.079 1.418 7.937 1.795-4.157 7.89-4.535 7.89-4.535s6.094.33 7.937 4.535c.047.095 1.842-4.488 1.417-7.937 4.866 1.229 10.63 3.638 14.882 8.174z"/>
        <path fill="#FFD05B" d="M37.417 36.378c0 .614-.378 3.874-7.275 6.52h-.378c-6.898-2.646-7.276-5.906-7.276-6.52a9.516 9.516 0 0 1 .85-3.59c1.89 2.125 4.158 3.543 6.615 3.543 2.41 0 4.724-1.37 6.614-3.544.52 1.134.85 2.363.85 3.591z"/>
        <path fill="#F1543F" d="M34.063 43.984l-1.512 3.024h-5.197l-1.511-3.024a14.108 14.108 0 0 1 4.11-1.04s2.078.143 4.11 1.04z"/>
        <path fill="#FF7058" d="M25.748 59.717a32.138 32.138 0 0 0 8.504 0l-1.654-12.662h-5.196l-1.654 12.662z"/>
        <g fill="#FFF">
            <path d="M37.417 36.283s.331 3.78-7.464 6.662c0 0 6.094.33 7.937 4.535.047.19 3.59-8.976-.473-11.197z"/>
            <path d="M22.488 36.283c-4.016 2.22-.52 11.339-.425 11.197C23.858 43.323 30 42.945 30 42.945c-7.843-2.882-7.512-6.662-7.512-6.662z"/>
        </g>
        <path fill="#F9B54C" d="M36.945 33.732c-1.984 2.126-4.347 3.496-6.992 3.496-2.646 0-5.008-1.37-6.992-3.496a5.63 5.63 0 0 1 .378-.945c1.89 2.126 4.157 3.544 6.614 3.544 2.456 0 4.724-1.37 6.614-3.544.142.284.283.615.378.945z"/>
        <path fill="#FFD05B" d="M42.85 26.504c-.992 1.653-2.504 2.646-3.637 2.457-2.268 4.204-5.575 7.322-9.26 7.322-3.685 0-6.992-3.165-9.26-7.322-1.134.141-2.646-.804-3.638-2.457-1.181-1.937-1.228-4.063-.094-4.772.283-.141.567-.236.897-.189.756 1.937 1.796 3.118 1.796 3.118-1.087-6 3.354-6.661 2.598-12.425 0 0 2.787 6.19 10.772 1.843l-.615 1.18c11.15-2.503 7.418 10.63 7.323 10.961 1.276-1.606 2.079-3.212 2.551-4.677.19 0 .426.095.567.19 1.229.66 1.181 2.834 0 4.77z"/>
        <path fill="#324A5E" d="M36.378 6c.898-.094 2.362.709 2.362.709-4.016-4.583-10.583-1.654-10.583-1.654 2.221-1.89 4.205-1.7 4.205-1.7-9.401-1.418-11.008 4.204-11.008 4.204-.425-.661-.425-1.606-.378-2.079-.661 1.134.048 3.402.048 3.402-.662-1.654-2.977-1.37-2.977-1.37 1.984.33 2.315 1.559 2.315 1.559-4.96 1.842-4.11 6.992-4.11 6.992l1.181-1.417c-1.464 5.622 2.268 9.968 2.268 9.968-1.087-6 3.354-6.661 2.598-12.425 0 0 2.788 6.189 10.772 1.842l-.614 1.182C43.748 12.66 39.78 26.22 39.78 26.22c4.015-5.102 3.401-10.346 3.401-10.346l.473 1.89C44.929 9.26 36.378 6 36.378 6z"/>
    </g>
</svg>
