<svg width="150" height="150" viewBox="0 0 150 150" fill="none" xmlns="http://www.w3.org/2000/svg">
<circle cx="75" cy="75" r="73.5" stroke="#FB3217" stroke-width="3"/>
<path d="M31.3125 72.4648H29.4141V68H17.5078V72.4648H15.6094V66.1953H16.9336C18.1367 64.1719 19.1641 61.7109 20.0156 58.8125C20.875 55.9141 21.3516 53.2656 21.4453 50.8672H29.1445V66.1953H31.3125V72.4648ZM27.1523 66.1953V52.6602H23.25C23.1094 54.5508 22.6367 56.8242 21.832 59.4805C21.0273 62.1289 20.0898 64.3672 19.0195 66.1953H27.1523ZM45 61.5664C45 63.6602 44.4727 65.2969 43.418 66.4766C42.3633 67.6484 40.9062 68.2344 39.0469 68.2344C37.8984 68.2344 36.8789 67.9648 35.9883 67.4258C35.0977 66.8867 34.4102 66.1133 33.9258 65.1055C33.4414 64.0977 33.1992 62.918 33.1992 61.5664C33.1992 59.4727 33.7227 57.8438 34.7695 56.6797C35.8164 55.5078 37.2695 54.9219 39.1289 54.9219C40.9258 54.9219 42.3516 55.5195 43.4062 56.7148C44.4688 57.9102 45 59.5273 45 61.5664ZM35.2148 61.5664C35.2148 63.207 35.543 64.457 36.1992 65.3164C36.8555 66.1758 37.8203 66.6055 39.0938 66.6055C40.3672 66.6055 41.332 66.1797 41.9883 65.3281C42.6523 64.4688 42.9844 63.2148 42.9844 61.5664C42.9844 59.9336 42.6523 58.6953 41.9883 57.8516C41.332 57 40.3594 56.5742 39.0703 56.5742C37.7969 56.5742 36.8359 56.9922 36.1875 57.8281C35.5391 58.6641 35.2148 59.9102 35.2148 61.5664ZM47.7539 60.3008C47.7539 57.4883 48.168 55.2969 48.9961 53.7266C49.8242 52.1484 51.1367 51.1641 52.9336 50.7734C55.168 50.2969 57.1367 49.9102 58.8398 49.6133L59.2031 51.3242C56.4922 51.7773 54.5547 52.1367 53.3906 52.4023C52.2578 52.6602 51.4062 53.2695 50.8359 54.2305C50.2734 55.1914 49.9648 56.5 49.9102 58.1562H50.0508C50.5352 57.5 51.1602 56.9844 51.9258 56.6094C52.6914 56.2344 53.4922 56.0469 54.3281 56.0469C55.9062 56.0469 57.1367 56.5586 58.0195 57.582C58.9023 58.6055 59.3438 60.0234 59.3438 61.8359C59.3438 63.8438 58.832 65.4141 57.8086 66.5469C56.7852 67.6719 55.3594 68.2344 53.5312 68.2344C51.7266 68.2344 50.3125 67.543 49.2891 66.1602C48.2656 64.7773 47.7539 62.8242 47.7539 60.3008ZM53.707 66.6055C56.0898 66.6055 57.2812 65.0859 57.2812 62.0469C57.2812 59.1484 56.1992 57.6992 54.0352 57.6992C53.4414 57.6992 52.8672 57.8242 52.3125 58.0742C51.7656 58.3164 51.2617 58.6406 50.8008 59.0469C50.3477 59.4531 49.9961 59.8711 49.7461 60.3008C49.7461 62.3555 50.0703 63.9219 50.7188 65C51.3672 66.0703 52.3633 66.6055 53.707 66.6055ZM70.6406 68L70.2539 66.1719H70.1602C69.5195 66.9766 68.8789 67.5234 68.2383 67.8125C67.6055 68.0938 66.8125 68.2344 65.8594 68.2344C64.5859 68.2344 63.5859 67.9062 62.8594 67.25C62.1406 66.5938 61.7812 65.6602 61.7812 64.4492C61.7812 61.8555 63.8555 60.4961 68.0039 60.3711L70.1836 60.3008V59.5039C70.1836 58.4961 69.9648 57.7539 69.5273 57.2773C69.0977 56.793 68.4062 56.5508 67.4531 56.5508C66.3828 56.5508 65.1719 56.8789 63.8203 57.5352L63.2227 56.0469C63.8555 55.7031 64.5469 55.4336 65.2969 55.2383C66.0547 55.043 66.8125 54.9453 67.5703 54.9453C69.1016 54.9453 70.2344 55.2852 70.9688 55.9648C71.7109 56.6445 72.082 57.7344 72.082 59.2344V68H70.6406ZM66.2461 66.6289C67.457 66.6289 68.4062 66.2969 69.0938 65.6328C69.7891 64.9688 70.1367 64.0391 70.1367 62.8438V61.6836L68.1914 61.7656C66.6445 61.8203 65.5273 62.0625 64.8398 62.4922C64.1602 62.9141 63.8203 63.5742 63.8203 64.4727C63.8203 65.1758 64.0312 65.7109 64.4531 66.0781C64.8828 66.4453 65.4805 66.6289 66.2461 66.6289ZM86.5195 58.3789C86.5195 59.2148 86.2773 59.8516 85.793 60.2891C85.3164 60.7188 84.6445 61.0078 83.7773 61.1562V61.2617C84.8711 61.4102 85.668 61.7305 86.168 62.2227C86.6758 62.7148 86.9297 63.3945 86.9297 64.2617C86.9297 65.457 86.4883 66.3789 85.6055 67.0273C84.7305 67.6758 83.4492 68 81.7617 68H76.1016V55.1562H81.7383C84.9258 55.1562 86.5195 56.2305 86.5195 58.3789ZM84.9844 64.1328C84.9844 63.4375 84.7188 62.9336 84.1875 62.6211C83.6641 62.3008 82.793 62.1406 81.5742 62.1406H78.0469V66.3711H81.6211C83.8633 66.3711 84.9844 65.625 84.9844 64.1328ZM84.6211 58.5664C84.6211 57.9414 84.3789 57.5 83.8945 57.2422C83.418 56.9766 82.6914 56.8438 81.7148 56.8438H78.0469V60.4648H81.3398C82.543 60.4648 83.3906 60.3164 83.8828 60.0195C84.375 59.7227 84.6211 59.2383 84.6211 58.5664ZM91.5938 55.1562V63.3008L91.5117 65.4336L91.4766 66.1016L98.4258 55.1562H100.852V68H99.0352V60.1484L99.0703 58.6016L99.1289 57.0781L92.1914 68H89.7656V55.1562H91.5938ZM113.637 56.8203H109.465V68H107.52V56.8203H103.395V55.1562H113.637V56.8203ZM118.125 60.4648H122.086C125.367 60.4648 127.008 61.6719 127.008 64.0859C127.008 65.3516 126.578 66.3203 125.719 66.9922C124.867 67.6641 123.617 68 121.969 68H116.18V55.1562H118.125V60.4648ZM118.125 62.1406V66.3711H121.875C122.906 66.3711 123.695 66.1914 124.242 65.832C124.789 65.4727 125.062 64.9297 125.062 64.2031C125.062 63.4922 124.809 62.9727 124.301 62.6445C123.801 62.3086 122.973 62.1406 121.816 62.1406H118.125ZM41.5195 101.234C39.6602 101.234 38.2188 100.664 37.1953 99.5234C36.1797 98.375 35.6719 96.7539 35.6719 94.6602C35.6719 92.5117 36.1875 90.8516 37.2188 89.6797C38.2578 88.5078 39.7344 87.9219 41.6484 87.9219C42.2656 87.9219 42.8828 87.9883 43.5 88.1211C44.1172 88.2539 44.6016 88.4102 44.9531 88.5898L44.3555 90.2422C43.9258 90.0703 43.457 89.9297 42.9492 89.8203C42.4414 89.7031 41.9922 89.6445 41.6016 89.6445C38.9922 89.6445 37.6875 91.3086 37.6875 94.6367C37.6875 96.2148 38.0039 97.4258 38.6367 98.2695C39.2773 99.1133 40.2227 99.5352 41.4727 99.5352C42.543 99.5352 43.6406 99.3047 44.7656 98.8438V100.566C43.9062 101.012 42.8242 101.234 41.5195 101.234ZM56.4844 89.8203H52.3125V101H50.3672V89.8203H46.2422V88.1562H56.4844V89.8203ZM66.9258 101L66.5391 99.1719H66.4453C65.8047 99.9766 65.1641 100.523 64.5234 100.812C63.8906 101.094 63.0977 101.234 62.1445 101.234C60.8711 101.234 59.8711 100.906 59.1445 100.25C58.4258 99.5938 58.0664 98.6602 58.0664 97.4492C58.0664 94.8555 60.1406 93.4961 64.2891 93.3711L66.4688 93.3008V92.5039C66.4688 91.4961 66.25 90.7539 65.8125 90.2773C65.3828 89.793 64.6914 89.5508 63.7383 89.5508C62.668 89.5508 61.457 89.8789 60.1055 90.5352L59.5078 89.0469C60.1406 88.7031 60.832 88.4336 61.582 88.2383C62.3398 88.043 63.0977 87.9453 63.8555 87.9453C65.3867 87.9453 66.5195 88.2852 67.2539 88.9648C67.9961 89.6445 68.3672 90.7344 68.3672 92.2344V101H66.9258ZM62.5312 99.6289C63.7422 99.6289 64.6914 99.2969 65.3789 98.6328C66.0742 97.9688 66.4219 97.0391 66.4219 95.8438V94.6836L64.4766 94.7656C62.9297 94.8203 61.8125 95.0625 61.125 95.4922C60.4453 95.9141 60.1055 96.5742 60.1055 97.4727C60.1055 98.1758 60.3164 98.7109 60.7383 99.0781C61.168 99.4453 61.7656 99.6289 62.5312 99.6289ZM81.0469 89.8203H76.875V101H74.9297V89.8203H70.8047V88.1562H81.0469V89.8203ZM85.5352 93.4648H89.4961C92.7773 93.4648 94.418 94.6719 94.418 97.0859C94.418 98.3516 93.9883 99.3203 93.1289 99.9922C92.2773 100.664 91.0273 101 89.3789 101H83.5898V88.1562H85.5352V93.4648ZM85.5352 95.1406V99.3711H89.2852C90.3164 99.3711 91.1055 99.1914 91.6523 98.832C92.1992 98.4727 92.4727 97.9297 92.4727 97.2031C92.4727 96.4922 92.2188 95.9727 91.7109 95.6445C91.2109 95.3086 90.3828 95.1406 89.2266 95.1406H85.5352ZM114.328 94.5664C114.328 96.668 113.824 98.3047 112.816 99.4766C111.816 100.648 110.441 101.234 108.691 101.234C107.027 101.234 105.707 100.715 104.73 99.6758C103.754 98.6289 103.211 97.1406 103.102 95.2109H99.7383V101H97.793V88.1562H99.7383V93.5352H103.125C103.281 91.7539 103.852 90.375 104.836 89.3984C105.82 88.4141 107.121 87.9219 108.738 87.9219C110.457 87.9219 111.816 88.5195 112.816 89.7148C113.824 90.9023 114.328 92.5195 114.328 94.5664ZM105.117 94.5664C105.117 96.2148 105.402 97.4688 105.973 98.3281C106.543 99.1797 107.457 99.6055 108.715 99.6055C109.949 99.6055 110.855 99.1914 111.434 98.3633C112.02 97.5273 112.312 96.2617 112.312 94.5664C112.312 92.9258 112.027 91.6836 111.457 90.8398C110.887 89.9961 109.973 89.5742 108.715 89.5742C107.457 89.5742 106.543 89.9961 105.973 90.8398C105.402 91.6836 105.117 92.9258 105.117 94.5664Z" fill="#FB3217"/>
</svg>
