<svg xmlns="http://www.w3.org/2000/svg" width="83" height="50" viewBox="0 0 83 50">
    <g fill="none" fill-rule="evenodd">
        <rect width="83" height="50" fill="#B3B3B3" rx="8"/>
        <path fill="#FFF" fill-rule="nonzero" d="M58.109 41.956h-32.26c-2.674 0-4.849-2.162-4.849-4.82V17.588c0-2.658 2.175-4.82 4.849-4.82h6.583l.576-1.932c.235-1.058 1.207-1.834 2.35-1.834H48.6c1.11 0 2.094.772 2.355 1.843l.015.066.525 1.857h6.614c2.674 0 4.85 2.162 4.85 4.82v19.548c-.002 2.658-2.177 4.82-4.85 4.82zm-32.26-27.582c-1.783 0-3.233 1.442-3.233 3.214v19.548c0 1.772 1.45 3.213 3.233 3.213h32.26c1.782 0 3.232-1.441 3.232-3.213V17.588c0-1.772-1.45-3.214-3.232-3.214H50.27l-.885-3.137a.81.81 0 0 0-.787-.629H35.358a.801.801 0 0 0-.787.63l-.935 3.136H25.85zM41.98 37.1c-5.656 0-10.258-4.574-10.258-10.196s4.602-10.196 10.258-10.196c5.655 0 10.256 4.575 10.256 10.196 0 5.622-4.601 10.196-10.256 10.196zm0-18.786c-4.765 0-8.642 3.853-8.642 8.59 0 4.736 3.877 8.588 8.642 8.588 4.764 0 8.64-3.853 8.64-8.588 0-4.737-3.877-8.59-8.64-8.59zm15.085-.957c-.824 0-1.491.664-1.491 1.482s.667 1.482 1.491 1.482c.824 0 1.49-.664 1.49-1.482s-.667-1.482-1.49-1.482z"/>
    </g>
</svg>
