<svg xmlns="http://www.w3.org/2000/svg" xmlns:xlink="http://www.w3.org/1999/xlink" width="150" height="30" viewBox="0 0 150 30">
    <defs>
        <path id="a" d="M24.616.122H0v28.96h24.616z"/>
    </defs>
    <g fill="#1d1d24" fill-rule="nonzero">
        <path fill="#1d1d24" fill-rule="nonzero" d="M22.216 20.51a9.66 9.66 0 0 1-2.461 3.796c-1.97 1.96-4.616 3-7.385 3a10.67 10.67 0 0 1-7.385-3c-.308-.245-.554-.55-.8-.857.123 0 .184.061.307.061 4.8 1.347 12.309-2.326 17.724-3zm-1.292.98c-2.031.428-4.123 1.04-6.093 1.653-2.461.673-5.6 1.592-8.43 1.47 1.66 1.285 3.753 1.958 5.907 1.958 2.585 0 5.046-.98 6.831-2.816.739-.673 1.293-1.408 1.785-2.265z"/>
        <g transform="translate(0 .062)">
            <path fill="#1d1d24" fill-rule="nonzero" d="M21.785 10.96a11.304 11.304 0 0 0-4.861-4.103l-.37-.122V4.408c0-1.408.493-1.653.8-1.898 0 0 .062 0 .062-.061V1.163H7.262V2.45l.061.061c.37.245.8.49.8 1.898v2.327l-.307.122c-2.031.857-3.693 2.327-4.862 4.102-1.17 1.714-1.785 3.796-1.785 6a10.79 10.79 0 0 0 3.323 7.837c2.031 2.02 4.862 3.245 7.94 3.245 3.076 0 5.907-1.225 7.938-3.245 2.03-2.02 3.323-4.776 3.323-7.837-.123-2.204-.8-4.286-1.908-6zM17.601 6.06c2.03.98 3.815 2.45 5.046 4.347a12.115 12.115 0 0 1 1.97 6.612c0 3.368-1.355 6.368-3.632 8.572-2.215 2.204-5.292 3.55-8.738 3.55-3.447 0-6.4-1.407-8.616-3.611A11.801 11.801 0 0 1 0 16.959c0-2.449.738-4.714 1.97-6.612A12.43 12.43 0 0 1 7.015 6V4.408c0-.796-.185-.918-.308-1.04-.308-.184-.554-.307-.554-.919V1.163c0-.306.123-.55.308-.734.184-.184.492-.307.8-.307h10.154c.308 0 .554.123.8.307.185.183.308.49.308.734V2.45c0 .551-.246.735-.554.918-.123.062-.308.184-.308 1.041l-.061 1.653z" mask="url(#b)"/>
        </g>
        <path fill="#1d1d24" fill-rule="nonzero" d="M2.954 18.367c0 .123-.062.306-.246.306-.185 0-.308-.06-.308-.244a11.141 11.141 0 0 1 .123-3.796c.246-1.225.677-2.388 1.354-3.368.062-.122.246-.183.37-.06.122.06.184.244.06.366a9.647 9.647 0 0 0-1.292 3.184c-.184 1.163-.246 2.327-.061 3.612M35.632 4.53v8.633c-2.154 3.796-4.308 7.408-6.646 11.266a1.457 1.457 0 0 0-.37.673c-.061.245-.123.49-.123.796 0 .673.247 1.224.677 1.653.37.429.923.673 1.539.673h18.277c.616 0 1.17-.244 1.539-.673.43-.429.677-.98.677-1.653 0-.306-.062-.551-.123-.796a1.457 1.457 0 0 0-.37-.673 589.133 589.133 0 0 1-6.646-11.266V3.735c.185-.49.554-.98.8-1.347.062-.061.062.122.062 0V1.224H34.709V2.45c0 .122.062-.061.123.061.246.306.615.796.739 1.286l.061.061v.674zm-5.97 20.327l4.493-7.47.246.062.431.061c.123 0 .246.061.37.061 1.969.429 3.384 1.286 4.676 2.082 1.908 1.163 3.508 2.143 6.278 1.04.123-.06.246-.06.369-.122l.369-.122.308-.122 2.77 4.591.06.062c.062.06.124.122.124.244.061.062.061.123.123.245 0 .062.061.184.061.245v.245c0 .184-.061.429-.123.612a1.332 1.332 0 0 1-.307.49 1.87 1.87 0 0 1-.431.306c-.185.062-.37.123-.554.123H30.647c-.184 0-.369-.061-.554-.123-.184-.06-.307-.183-.43-.306a1.332 1.332 0 0 1-.308-.49 2.166 2.166 0 0 1-.123-.612v-.245c0-.06.061-.183.061-.245 0-.06.062-.183.123-.245.062-.06.062-.122.124-.244l.123-.123zm4.862-6.673c-1.292 2.081-2.954 5.326-4.369 7.163 0 .061-.062.061-.062.122 0 .062-.061.062-.061.123s0 .122-.062.122v.123c0 .122 0 .245.062.306.061.122.123.184.184.245.062.061.124.122.185.122.062 0 .123.061.185.061h18.277c.062 0 .123 0 .185-.06.062-.062.123-.062.185-.123.061-.061.123-.184.184-.245.062-.123.062-.245.062-.306v-.123c0-.06 0-.122-.062-.122 0-.061 0-.061-.061-.123 0-.06-.062-.06-.062-.122-.861-1.102-1.785-2.878-2.523-4.163l-.308.245c-3.138 1.224-4.923.122-7.015-1.102-1.231-.735-2.585-1.592-4.431-1.96-.123 0-.246-.06-.37-.06l-.123-.123zm2.524-8.266c0-.183.123-.306.246-.306.184 0 .307.123.307.245.062 1.347.123 2.755-.123 3.612-.246.858-.43 1.102-1.046 2.082-.061.122-.246.184-.37.061-.122-.061-.184-.245-.06-.367.615-.918.738-1.163.984-1.96.185-.734.062-2.08.062-3.367zm-6.4 19.347c-.924 0-1.724-.367-2.278-.98-.554-.612-.923-1.407-.923-2.326 0-.367.062-.735.185-1.102.123-.367.307-.673.492-.98l4.677-7.714 1.785-3.183v-9c-.123-.307-.43-.674-.616-.919-.184-.245-.307-.428-.307-.612V1.224c0-.306.123-.55.307-.795.185-.184.493-.307.8-.307h10.155c.307 0 .554.123.8.307.184.183.307.49.307.734v1.164c0 .183-.123.367-.307.612-.185.245-.493.673-.616.98v8.938l1.785 3.184 4.616 7.837c.246.306.369.612.492.98.123.366.185.734.185 1.101 0 .919-.37 1.776-.924 2.327-.615.612-1.415.98-2.277.98H30.647z"/>
        <g fill="#1d1d24" fill-rule="nonzero">
            <path d="M60.371 16.408c-1.046-1.224-1.6-3.061-1.6-5.632V.122h1.231v10.654c0 2.142.431 3.734 1.231 4.775.862 1.04 1.97 1.53 3.323 1.53 1.477 0 2.646-.55 3.508-1.591.862-1.041 1.292-2.694 1.292-4.837V.123h1.231v10.53c0 2.571-.554 4.47-1.661 5.694-1.108 1.224-2.585 1.837-4.431 1.837-1.662 0-3.077-.613-4.124-1.776zM74.834 9.735c0-1.47-.062-3-.124-4.592h1.17l.061 2.449h.062c.984-1.776 2.4-2.694 4.185-2.694 1.477 0 2.523.49 3.261 1.53.739 1.041 1.046 2.45 1.046 4.225v7.225h-1.23V11.02c0-1.714-.308-3-.924-3.796-.615-.857-1.415-1.285-2.461-1.285-.8 0-1.477.306-2.154.857-.615.55-1.108 1.286-1.415 2.204-.185.429-.247.98-.247 1.592v7.347h-1.23V9.735zM88.496 2.449a1.011 1.011 0 0 1-.308-.735c0-.306.123-.55.308-.734.184-.184.43-.307.738-.307s.492.123.739.307c.184.183.307.428.307.734s-.123.551-.307.735c-.185.184-.431.306-.739.306s-.554-.122-.738-.306zm.061 2.694h1.23v12.735h-1.23V5.143zM94.957 17.082c-.43-.735-.615-1.776-.615-3.184V6.184h-1.908V5.143h1.908V2.082l1.23-.429v3.49h3.262v.98h-3.261v7.714c0 1.102.123 1.898.369 2.387.246.49.738.796 1.415.796.493 0 .924-.06 1.231-.183l.123.98c-.43.183-.984.305-1.6.305-1.046.062-1.784-.306-2.154-1.04zM101.604 17.878V.368C102.65.121 103.88 0 105.234 0c1.724 0 3.078.306 4.124.98 1.046.673 1.6 1.775 1.6 3.306 0 .98-.308 1.836-.985 2.571-.615.735-1.538 1.225-2.584 1.53v.062c1.23.245 2.215.735 3.015 1.408.8.735 1.23 1.714 1.23 3 0 1.837-.676 3.123-2.03 3.919-1.354.795-3.077 1.224-5.17 1.224-.8.061-1.784 0-2.83-.122zm3.015-9.919c1.539 0 2.77-.306 3.631-.98.923-.612 1.354-1.53 1.354-2.693 0-2.204-1.477-3.368-4.37-3.368-.984 0-1.784.062-2.4.184v6.857h1.785zm4.062 8.082c1.046-.674 1.538-1.714 1.538-3.123 0-1.408-.553-2.387-1.6-3-1.107-.612-2.523-.918-4.307-.918h-1.477v7.96c.43.06 1.046.122 1.846.122 1.661 0 2.954-.368 4-1.041zM116.558 17.388a5.603 5.603 0 0 1-2.03-2.266c-.493-.98-.74-2.081-.74-3.367 0-1.347.247-2.51.678-3.55.492-1.042 1.107-1.838 1.97-2.45.86-.612 1.845-.857 2.891-.857 1.231 0 2.154.306 2.893.857.738.612 1.23 1.286 1.538 2.143.308.857.431 1.714.431 2.51 0 .429 0 .796-.061 1.102h-9.108c0 1.714.43 3.061 1.23 4.102.8 1.041 1.97 1.53 3.508 1.53 1.293 0 2.4-.244 3.447-.673l.246.919c-.431.183-.923.367-1.6.55-.677.184-1.416.246-2.277.246-1.108 0-2.093-.306-3.016-.796zm6.462-6.796v-.061c0-1.347-.308-2.45-.923-3.307-.616-.857-1.539-1.285-2.77-1.285-1.23 0-2.153.428-2.892 1.347-.738.918-1.17 2.02-1.23 3.306h7.815zM127.266 17.204c-.677-.673-.984-1.47-.984-2.449 0-1.47.677-2.633 1.969-3.428 1.292-.796 3.2-1.225 5.6-1.225v-.306c0-1.102-.185-2.02-.615-2.816-.431-.735-1.231-1.164-2.462-1.164-.554 0-1.108.062-1.723.245a8.233 8.233 0 0 0-1.477.674l-.37-.857a5.882 5.882 0 0 1 1.785-.796 6.977 6.977 0 0 1 1.847-.245c2.83 0 4.184 1.714 4.184 5.081v4.898c0 1.225.062 2.204.185 3.062h-1.046c-.062-.551-.123-1.225-.185-1.898h-.061c-.37.612-.923 1.163-1.6 1.591-.677.429-1.477.613-2.4.613-1.108 0-1.97-.306-2.647-.98zm4.493-.367a3.386 3.386 0 0 0 1.23-1.041c.554-.674.8-1.47.8-2.327v-2.387c-1.907 0-3.384.245-4.553.796-1.17.55-1.724 1.469-1.724 2.693 0 .796.247 1.47.739 1.96s1.108.734 1.908.734c.615-.06 1.107-.183 1.6-.428zM139.144 9.735c0-1.47-.062-3-.123-4.592h1.169l.061 2.449h.062c.985-1.776 2.4-2.694 4.185-2.694 1.477 0 2.523.49 3.261 1.53.739 1.041 1.046 2.45 1.046 4.225v7.225h-1.23V11.02c0-1.714-.308-3-.923-3.796-.616-.857-1.416-1.285-2.462-1.285-.8 0-1.477.306-2.154.857-.615.55-1.108 1.286-1.415 2.204-.185.429-.247.98-.247 1.592v7.347h-1.23V9.735z"/>
        </g>
        <g fill="#1d1d24" fill-rule="nonzero">
            <path d="M59.369 24.551c0-.306 0-.673-.062-1.102h.37v.796c.122-.245.307-.49.553-.612.246-.184.493-.245.862-.245.307 0 .554.061.738.245.246.183.37.428.431.673.123-.306.308-.55.554-.673.246-.123.554-.245.862-.245.184 0 .43.061.615.183.185.123.37.307.492.551.123.245.185.613.185 1.041v2.633h-.43v-2.572c0-.49-.124-.857-.309-1.102a.879.879 0 0 0-.738-.367c-.246 0-.43.061-.677.245-.246.184-.37.367-.43.612 0 .061-.062.184-.062.245v2.878h-.247V24.98c0-.368-.123-.674-.307-.919a.879.879 0 0 0-.739-.367c-.246 0-.492.122-.677.306-.184.184-.369.429-.43.735-.062.122-.062.245-.062.428v2.633h-.43V24.55h-.062zM67.123 27.551c-.308-.184-.493-.429-.677-.796-.185-.306-.246-.735-.246-1.163 0-.49.061-.857.246-1.225.184-.367.43-.612.738-.796.308-.183.616-.244.985-.244.37 0 .677.122.985.306.307.183.492.428.677.796.184.367.246.734.246 1.163 0 .49-.123.918-.308 1.286-.185.367-.43.612-.738.795a1.744 1.744 0 0 1-.924.245 2.728 2.728 0 0 1-.984-.367zm1.723-.245c.246-.184.43-.367.554-.673.123-.306.184-.613.184-1.041 0-.306-.061-.674-.184-.919-.123-.306-.308-.49-.493-.673-.246-.184-.492-.245-.8-.245-.307 0-.553.061-.8.245-.246.184-.369.429-.492.673a2.527 2.527 0 0 0-.185.98c0 .367.062.674.185.98.123.306.308.49.554.673.246.184.492.245.738.245.308-.061.554-.122.739-.245zM72.108 27.612a2.187 2.187 0 0 1-.616-.673l-.061.796h-.37c0-.429.062-.796.062-1.164V21.43h.43v2.816c.124-.245.37-.49.616-.674.246-.183.554-.244.862-.244.369 0 .677.06.923.244s.492.429.615.796c.123.368.246.735.246 1.225 0 .49-.061.857-.246 1.224-.184.368-.43.613-.677.796-.246.184-.615.245-.984.245-.247 0-.554-.122-.8-.245zM74.015 27c.247-.367.37-.796.37-1.347 0-.551-.123-1.04-.37-1.408a1.21 1.21 0 0 0-1.046-.551c-.246 0-.43.061-.677.184-.246.122-.369.306-.554.612a1.947 1.947 0 0 0-.184.857v.735c0 .245.061.49.184.734.123.245.308.429.493.551.184.123.43.184.677.184.492-.061.8-.245 1.107-.551zM75.862 22.53c-.062-.06-.124-.122-.124-.244 0-.123.062-.184.124-.245.061-.061.123-.123.246-.123s.184.062.246.123a.463.463 0 0 1 .123.245c0 .122-.062.183-.123.245-.062.06-.123.122-.246.122-.123-.061-.185-.061-.246-.122zm.061.919h.43v4.347h-.43v-4.347zM77.708 21.429h.43v6.367h-.43zM80.108 27.551c-.308-.184-.554-.429-.677-.735a3.25 3.25 0 0 1-.246-1.163c0-.429.061-.857.246-1.224.185-.368.37-.613.677-.858.308-.183.615-.306.985-.306.43 0 .738.123.984.306.246.184.431.429.493.735.123.306.123.551.123.857v.368h-3.077c0 .55.123 1.04.43 1.408.308.367.677.49 1.17.49.43 0 .8-.062 1.169-.245l.061.306a2.871 2.871 0 0 1-.553.183c-.247.062-.493.062-.8.062-.308.122-.677 0-.985-.184zm2.215-2.265c0-.49-.123-.857-.307-1.164-.185-.306-.493-.428-.923-.428-.431 0-.739.122-.985.428-.246.307-.37.674-.43 1.102h2.645v.062zM86.385 27.551c-.308-.184-.554-.429-.677-.796-.185-.306-.246-.735-.246-1.163 0-.429.061-.857.246-1.163.185-.307.43-.613.739-.796a2.133 2.133 0 0 1 1.107-.306c.185 0 .37 0 .554.06.185.062.308.123.37.184l-.124.307a1.71 1.71 0 0 0-.8-.184c-.369 0-.677.061-.923.245-.246.183-.43.428-.554.673a2.527 2.527 0 0 0-.184.98c0 .367.061.735.184.98.123.306.308.49.554.673.246.122.554.245.862.245.307 0 .615-.061.923-.245l.061.306a3.008 3.008 0 0 1-.43.184c-.185.06-.37.06-.616.06-.43.062-.8-.06-1.046-.244zM89.462 24.673v-.795-.49h.37v.857c.122-.306.245-.551.492-.735.246-.183.43-.245.677-.245h.184v.429h-.246c-.43 0-.738.245-.923.735-.123.306-.185.673-.185 1.163v2.081h-.43v-3h.061zM92.478 27.551c-.308-.184-.554-.429-.677-.735a3.25 3.25 0 0 1-.247-1.163c0-.429.062-.857.247-1.224.184-.368.369-.613.677-.858.307-.183.615-.306.984-.306.431 0 .739.123.985.306.246.184.43.429.492.735.123.306.123.551.123.857v.368h-3.077c0 .55.123 1.04.431 1.408.308.367.677.49 1.17.49.43 0 .8-.062 1.169-.245l.061.306a2.871 2.871 0 0 1-.554.183c-.246.062-.492.062-.8.062-.307.122-.677 0-.984-.184zm2.215-2.265c0-.49-.123-.857-.308-1.164-.184-.306-.492-.428-.923-.428-.43 0-.738.122-.984.428-.247.307-.37.674-.431 1.102h2.646v.062zM96.108 27.49c-.246-.245-.307-.49-.307-.857 0-.49.246-.857.677-1.164.43-.245 1.107-.428 1.907-.428v-.123c0-.367-.061-.673-.246-.918-.123-.245-.43-.367-.8-.367-.184 0-.369 0-.554.06-.184.062-.369.123-.492.246l-.123-.306c.185-.123.37-.245.615-.306.247-.062.431-.062.616-.062.923 0 1.415.551 1.415 1.715v1.653c0 .428 0 .734.062 1.04h-.37c0-.183-.061-.428-.061-.673-.123.245-.308.367-.554.551a1.71 1.71 0 0 1-.8.184c-.43.122-.738 0-.985-.245zm1.539-.123c.185-.06.308-.183.43-.367.185-.245.308-.49.308-.796v-.796c-.615 0-1.169.061-1.538.245-.37.184-.554.49-.554.918 0 .245.062.49.246.674.185.184.37.245.677.245.062 0 .246 0 .431-.123zM100.478 27.49c-.123-.245-.185-.612-.185-1.102v-2.633h-.677v-.367h.677v-1.041l.431-.123v1.164h1.108v.367h-1.108v2.633c0 .367.062.612.123.796.062.183.246.245.492.245.185 0 .308 0 .431-.062l.062.368a1.234 1.234 0 0 1-.554.122c-.43 0-.677-.122-.8-.367zM102.693 22.53c-.061-.06-.123-.122-.123-.244 0-.123.062-.184.123-.245.062-.061.123-.123.246-.123.124 0 .185.062.247.123a.463.463 0 0 1 .123.245c0 .122-.062.183-.123.245-.062.06-.123.122-.247.122-.123-.061-.184-.061-.246-.122zm0 .919h.431v4.347h-.43v-4.347zM103.924 23.449h.43l.924 2.571.43 1.286c.062-.245.185-.49.309-.857l.184-.49.923-2.51h.431l-1.723 4.347h-.37l-1.538-4.347zM108.97 27.551c-.307-.184-.553-.429-.676-.735a3.25 3.25 0 0 1-.247-1.163c0-.429.062-.857.247-1.224.184-.368.369-.613.676-.858.308-.183.616-.306.985-.306.43 0 .739.123.985.306.246.184.43.429.492.735.123.306.123.551.123.857v.368h-3.077c0 .55.123 1.04.43 1.408.309.367.678.49 1.17.49.431 0 .8-.062 1.17-.245l.061.367a2.871 2.871 0 0 1-.554.184c-.246.06-.492.06-.8.06-.308.062-.677-.06-.985-.244zm2.154-2.265c0-.49-.123-.857-.307-1.164-.185-.306-.493-.428-.923-.428-.431 0-.739.122-.985.428-.246.307-.37.674-.43 1.102h2.645v.062zM114.57 21.429h.431v6.367h-.43zM116.355 27.49c-.246-.245-.307-.49-.307-.857 0-.49.246-.857.677-1.164.43-.245 1.107-.428 1.907-.428v-.123c0-.367-.061-.673-.246-.918-.123-.245-.43-.367-.8-.367-.184 0-.37 0-.554.06-.184.062-.369.123-.492.246l-.123-.306c.185-.123.37-.245.615-.306.246-.062.431-.062.616-.062.923 0 1.415.551 1.415 1.715v1.653c0 .428 0 .734.062 1.04h-.431c0-.183-.062-.428-.062-.673-.123.245-.307.367-.553.551a1.71 1.71 0 0 1-.8.184c-.37.122-.677 0-.924-.245zm1.539-.123c.185-.06.308-.183.43-.367.185-.245.308-.49.308-.796v-.796c-.615 0-1.169.061-1.538.245-.37.184-.554.49-.554.918 0 .245.062.49.246.674.185.184.37.245.677.245.062 0 .246 0 .43-.123zM121.34 27.612a2.187 2.187 0 0 1-.615-.673l-.062.796h-.369c0-.429.062-.796.062-1.164V21.43h.43v2.816c.123-.245.37-.49.616-.674.246-.183.554-.244.861-.244.37 0 .677.06.923.244.247.184.493.429.616.796.123.368.246.735.246 1.225 0 .49-.062.857-.246 1.224-.185.368-.431.613-.677.796-.308.184-.616.245-.985.245-.246 0-.492-.122-.8-.245zm1.908-.612c.246-.367.37-.796.37-1.347 0-.551-.124-1.04-.37-1.408a1.21 1.21 0 0 0-1.046-.551c-.246 0-.431.061-.677.184-.246.122-.37.306-.554.612-.185.306-.185.55-.185.857v.735c0 .245.062.49.185.734.123.245.308.429.492.551.185.123.431.184.677.184.493-.061.862-.245 1.108-.551zM125.771 27.551c-.308-.184-.492-.429-.677-.796-.184-.367-.246-.735-.246-1.163 0-.49.062-.857.246-1.225.185-.367.43-.612.739-.796.307-.183.615-.244.984-.244.37 0 .677.122.985.306.308.183.492.428.677.796.185.367.246.734.246 1.163 0 .49-.123.918-.308 1.286-.184.367-.43.612-.738.795a1.744 1.744 0 0 1-.923.245c-.431-.06-.739-.183-.985-.367zm1.723-.245c.246-.184.431-.367.554-.673.123-.306.185-.613.185-1.041 0-.306-.062-.674-.185-.919-.123-.306-.308-.49-.492-.673-.185-.184-.493-.245-.8-.245-.308 0-.554.061-.8.245s-.37.429-.493.673a2.527 2.527 0 0 0-.184.98c0 .367.061.674.184.98.123.306.308.49.554.673.246.184.493.245.739.245.246-.061.492-.122.738-.245zM129.71 24.673v-.795-.49h.369v.857c.123-.306.246-.551.492-.735.246-.183.431-.245.677-.245h.185v.429h-.246c-.431 0-.739.245-.923.735-.124.306-.185.673-.185 1.163v2.081h-.43v-3h.06zM132.233 27.49c-.246-.245-.308-.49-.308-.857 0-.49.246-.857.677-1.164.43-.245 1.108-.428 1.908-.428v-.123c0-.367-.062-.673-.246-.918-.123-.245-.431-.367-.8-.367-.185 0-.37 0-.554.06-.185.062-.37.123-.492.246l-.124-.306c.185-.123.37-.245.616-.306.246-.062.43-.062.615-.062.923 0 1.416.551 1.416 1.715v1.653c0 .428 0 .734.061 1.04h-.369c0-.183-.062-.428-.062-.673-.123.245-.307.367-.553.551a1.71 1.71 0 0 1-.8.184c-.431.122-.739 0-.985-.245zm1.538-.123c.185-.06.308-.183.431-.367.185-.245.308-.49.308-.796v-.796c-.616 0-1.17.061-1.539.245s-.553.49-.553.918c0 .245.061.49.246.674.184.184.369.245.677.245.123 0 .246 0 .43-.123zM136.602 27.49c-.123-.245-.184-.612-.184-1.102v-2.633h-.677v-.367h.677v-1.041l.43-.123v1.164h1.108v.367h-1.108v2.633c0 .367.062.612.124.796.061.183.246.245.492.245.184 0 .308 0 .43-.062l.062.368a1.234 1.234 0 0 1-.554.122c-.43 0-.677-.122-.8-.367zM139.372 27.551c-.308-.184-.493-.429-.677-.796-.185-.367-.247-.735-.247-1.163 0-.49.062-.857.247-1.225.184-.367.43-.612.738-.796.308-.183.616-.244.985-.244s.677.122.984.306c.308.183.493.428.677.796.185.367.247.734.247 1.163 0 .49-.124.918-.308 1.286-.185.367-.43.612-.739.795a1.744 1.744 0 0 1-.923.245 2.728 2.728 0 0 1-.984-.367zm1.723-.245c.246-.184.43-.367.554-.673.123-.306.184-.613.184-1.041 0-.306-.061-.674-.184-.919-.123-.306-.308-.49-.493-.673-.184-.184-.492-.245-.8-.245-.307 0-.554.061-.8.245s-.369.429-.492.673a2.527 2.527 0 0 0-.185.98c0 .367.062.674.185.98.123.306.308.49.554.673.246.184.492.245.738.245.246-.061.493-.122.739-.245zM143.372 24.673v-.795-.49h.369v.857c.123-.306.246-.551.492-.735.246-.183.431-.245.677-.245h.185v.429h-.246c-.431 0-.739.245-.923.735-.123.306-.185.673-.185 1.163v2.081h-.43v-3h.06zM145.71 29.388c.616-.184 1.108-.735 1.477-1.53.062-.062.062-.123.062-.185 0-.06 0-.122-.062-.183l-1.6-4.041h.493l1.107 2.878c.123.306.246.612.308.918.062-.184.123-.429.246-.735.062-.122.062-.183.062-.183l.984-2.817h.431l-1.108 3.123c-.307.734-.492 1.347-.738 1.775-.246.429-.43.735-.677.919-.185.122-.308.244-.492.367-.123.061-.308.122-.37.184l-.123-.49z"/>
        </g>
    </g>
</svg>
