<svg xmlns="http://www.w3.org/2000/svg" width="60" height="60" viewBox="0 0 60 60">
    <g fill="none" fill-rule="nonzero">
        <circle cx="30" cy="30" r="30" fill="#FD8469"/>
        <path fill="#84DBFF" d="M53.291 48.898C47.811 55.654 39.401 60 30 60c-9.402 0-17.811-4.346-23.291-11.102 3.92-5.244 9.92-7.843 14.834-9.118-.378 3.118 1.229 7.275 1.276 7.18C24.472 43.182 30 42.85 30 42.85s5.528.331 7.134 4.11c.047.095 1.7-4.062 1.275-7.18 4.961 1.275 11.008 3.874 14.882 9.118z"/>
        <path fill="#FFF" d="M36.756 36.85v.048c0 .472-.236 3.496-6.614 5.905h-.284c-6.378-2.41-6.614-5.433-6.614-5.905v-.048c0-.614.142-1.228.284-1.842 1.842 2.315 4.063 3.874 6.472 3.874 2.41 0 4.63-1.56 6.472-3.874.142.614.284 1.228.284 1.842z"/>
        <g fill="#54C0EB">
            <path d="M36.756 36.85s.33 3.402-6.756 6.048c0 0 5.528.33 7.134 4.11.094.094 3.26-8.126-.378-10.158zM23.244 36.85c-3.638 2.032-.472 10.252-.378 10.11C24.52 43.182 30 42.85 30 42.85c-7.087-2.598-6.756-6-6.756-6z"/>
        </g>
        <g fill="#FFF">
            <path d="M39.921 24.898c-.425 2.929-1.7 5.669-3.827 7.748a9.144 9.144 0 0 1-1.275 1.086l-.756-2.41h-8.126l-.756 2.41c-1.512-1.134-4.677-4.299-4.724-7.275-1.323-16.96 11.669-13.37 11.669-13.37 8.74-.615 8.457 7.086 7.795 11.81zM41.67 27.969c-.662 1.086-1.56 1.842-2.41 2.125.33-.755.614-1.559.85-2.362v-.047l.567-2.126h-.047c.189-.709.378-1.417.52-2.126.189 0 .378.095.567.189 1.039.661.992 2.598-.048 4.347zM20.74 30.094c-.85-.283-1.748-1.039-2.41-2.125-1.086-1.749-1.086-3.686-.047-4.3.095-.047.142-.094.237-.094.567 2.22 1.228 3.874 1.37 4.205.236.755.52 1.559.85 2.314z"/>
        </g>
        <path fill="#324A5E" d="M35.15 8.362c.378-4.346-6.52-4.063-6.52-4.063-10.441 1.512-11.575 11.244-11.575 11.244l1.417-1.7c-2.22 4.866 1.134 13.228 1.418 13.89 1.748 5.81 5.622 11.149 10.11 11.149 4.488 0 8.362-5.339 10.11-11.15v-.047c.19-.709.378-1.417.52-2.126h-.047a446.59 446.59 0 0 1 1.984-7.606c2.693-13.56-7.417-9.59-7.417-9.59zm4.771 16.536c-.425 2.929-1.7 5.669-3.827 7.748-.425.425-.85.756-1.275 1.086l-.756-2.362h-8.126l-.756 2.41c-1.512-1.134-2.787-2.693-3.827-4.489a10.03 10.03 0 0 1-.897-2.787c-1.323-16.96 11.669-13.37 11.669-13.37 8.74-.662 8.457 7.04 7.795 11.764z"/>
        <path fill="#324A5E" d="M35.15 8.362c.378-4.346-6.52-4.063-6.52-4.063-10.441 1.512-11.575 11.244-11.575 11.244l1.417-1.7c-2.22 4.866 1.134 13.228 1.418 13.89 1.748 5.81 5.622 11.149 10.11 11.149 4.488 0 8.362-5.339 10.11-11.15v-.047c.19-.709.378-1.417.52-2.126h-.047a446.59 446.59 0 0 1 1.984-7.606c2.693-13.56-7.417-9.59-7.417-9.59zm4.771 16.536c-.425 2.929-1.7 5.669-3.827 7.748-.425.425-.85.756-1.275 1.086l-.756-2.362h-8.126l-.756 2.41c-1.512-1.134-2.787-2.693-3.827-4.489a10.03 10.03 0 0 1-.897-2.787c-1.323-16.96 11.669-13.37 11.669-13.37 8.74-.662 8.457 7.04 7.795 11.764z"/>
        <path fill="#324A5E" d="M35.15 8.362c.378-4.346-6.52-4.063-6.52-4.063-10.441 1.512-11.575 11.244-11.575 11.244l1.417-1.7c-2.22 4.866 1.134 13.228 1.418 13.89 1.748 5.81 5.622 11.149 10.11 11.149 4.488 0 8.362-5.339 10.11-11.15v-.047c.19-.709.378-1.417.52-2.126h-.047a446.59 446.59 0 0 1 1.984-7.606c2.693-13.56-7.417-9.59-7.417-9.59zm4.771 16.536c-.425 2.929-1.7 5.669-3.827 7.748-.425.425-.85.756-1.275 1.086l-.756-2.362h-8.126l-.756 2.41c-1.512-1.134-4.677-4.3-4.724-7.276-1.323-16.96 11.669-13.37 11.669-13.37 8.74-.662 8.457 7.04 7.795 11.764z"/>
        <path fill="#FFF" d="M26.693 32.976c.803.898 1.984 1.512 3.307 1.512a4.299 4.299 0 0 0 3.307-1.512h-6.614z"/>
    </g>
</svg>
