<svg xmlns="http://www.w3.org/2000/svg" xmlns:xlink="http://www.w3.org/1999/xlink" width="179" height="101" viewBox="0 0 179 101">
    <defs>
        <path id="a" d="M84.215.368H0v99.952h84.215V.368z"/>
    </defs>
    <g fill="none" fill-rule="evenodd">
        <path fill="#FF4A33" d="M71.641 73.819c-6.97 1.39-14.083 3.694-20.756 5.607-8.456 2.425-19.208 5.439-28.794 5.116 5.765 4.413 12.836 6.824 20.22 6.824 8.824 0 17.198-3.44 23.437-9.63a32.959 32.959 0 0 0 5.893-7.917m4.412-3.416c-18.435 2.425-44.029 15.168-60.726 10.518a48.47 48.47 0 0 1-1.021-.297 35.536 35.536 0 0 0 2.685 2.979c6.738 6.686 15.79 10.404 25.32 10.404 9.532 0 18.581-3.718 25.321-10.404a35.42 35.42 0 0 0 8.421-13.2"/>
        <g transform="translate(.204 -.064)">
            <mask id="b" fill="#fff">
                <use xlink:href="#a"/>
            </mask>
            <path fill="#FF4A33" d="M74.376 37.756A38.546 38.546 0 0 0 57.667 23.64l-1.08-.475V15.17h-.007c0-4.782 1.592-5.776 2.837-6.552.088-.057.164-.103.164-.12V4.114a.144.144 0 0 0-.039-.1.156.156 0 0 0-.1-.038h-34.67a.156.156 0 0 0-.1.039.144.144 0 0 0-.039.099v4.385c0 .017.076.063.165.12 1.244.776 2.836 1.77 2.836 6.552v7.992l-1.087.477A38.546 38.546 0 0 0 9.839 37.756 37.762 37.762 0 0 0 3.637 58.55c0 10.54 4.306 20.08 11.268 26.984a38.498 38.498 0 0 0 27.202 11.178c10.623 0 20.242-4.27 27.202-11.178C76.271 78.63 80.578 69.09 80.578 58.55c0-7.677-2.28-14.818-6.202-20.794zM60.21 20.833a42.199 42.199 0 0 1 17.206 14.964c4.299 6.55 6.799 14.366 6.799 22.753 0 11.536-4.713 21.978-12.333 29.537a42.153 42.153 0 0 1-29.775 12.233 42.153 42.153 0 0 1-29.774-12.233C4.713 80.528-.001 70.086-.001 58.55a41.313 41.313 0 0 1 6.8-22.753A42.172 42.172 0 0 1 23.995 20.84V15.17c0-2.803-.632-3.2-1.128-3.51-1.026-.641-1.871-1.168-1.871-3.162V4.114a3.72 3.72 0 0 1 1.108-2.64l.007-.007a3.781 3.781 0 0 1 2.66-1.099h34.672c1.033 0 1.976.422 2.66 1.099l.006.007a3.715 3.715 0 0 1 1.11 2.64v4.385c0 1.994-.846 2.52-1.872 3.163-.494.31-1.13.706-1.13 3.509h-.005l-.002 5.662z" mask="url(#b)"/>
        </g>
        <path fill="#FF4A33" d="M10.305 63.02a.958.958 0 0 1-.83 1.078.968.968 0 0 1-1.088-.822c-.627-4.542-.486-8.911.326-12.992.843-4.24 2.41-8.178 4.593-11.683a.969.969 0 0 1 1.33-.312c.452.277.595.87.314 1.32-2.057 3.305-3.536 7.024-4.336 11.043-.772 3.885-.907 8.046-.31 12.367M121.91 15.402V45.043A1726.212 1726.212 0 0 1 99.24 83.967l-.057.075a8.125 8.125 0 0 0-1.248 2.357 8.438 8.438 0 0 0-.426 2.684c0 2.232.855 4.244 2.238 5.693 1.36 1.427 3.238 2.31 5.307 2.31h62.555c2.069 0 3.946-.883 5.307-2.31 1.383-1.449 2.237-3.461 2.237-5.693 0-.958-.15-1.862-.425-2.684a8.125 8.125 0 0 0-1.248-2.357l-.058-.075c-7.923-13.354-15.282-25.924-22.668-38.959V12.896l.098-.282c.596-1.719 1.872-3.48 2.681-4.597.193-.266.328.433.328-.01V4.047a.212.212 0 0 0-.06-.154l-.007-.008a.224.224 0 0 0-.155-.058h-34.615a.219.219 0 0 0-.156.066.219.219 0 0 0-.066.154v3.962c0 .42.164-.196.394.115v.008c.806 1.097 2.01 2.73 2.607 4.422l.105.296v2.553zm-20.39 69.98l15.456-25.746.89.15 1.382.246c.487.092.942.183 1.354.272 6.78 1.454 11.61 4.43 16.01 7.14 6.458 3.98 11.932 7.352 21.51 3.647a53.93 53.93 0 0 0 1.239-.495l1.252-.523 1.067-.457 9.465 15.766.228.304c.17.226.327.477.466.745.13.24.244.517.344.815a5.826 5.826 0 0 1 .309 1.838c0 .71-.132 1.42-.393 2.092a5.475 5.475 0 0 1-1.127 1.78 4.88 4.88 0 0 1-1.535 1.097 4.427 4.427 0 0 1-1.827.394h-62.555c-.646 0-1.261-.14-1.83-.394a4.893 4.893 0 0 1-1.532-1.097 5.408 5.408 0 0 1-1.126-1.78 5.76 5.76 0 0 1-.396-2.092c0-.298.028-.61.082-.929.048-.3.127-.605.229-.908a5.297 5.297 0 0 1 .81-1.555l.227-.31zm16.795-22.842c-4.344 7.238-10.09 18.339-14.891 24.726-.09.113-.17.242-.24.376a2.988 2.988 0 0 0-.311.939c-.026.15-.04.32-.04.503 0 .401.071.792.208 1.142.131.341.327.653.58.92l.006.005c.205.214.438.385.692.499.223.099.471.154.736.154h62.555c.264 0 .512-.055.734-.154a2.21 2.21 0 0 0 .693-.5l.006-.005c.253-.266.447-.578.58-.919.137-.35.208-.74.208-1.142 0-.184-.015-.353-.04-.505a2.89 2.89 0 0 0-.31-.932 2.428 2.428 0 0 0-.24-.381c-2.887-3.841-6.065-10.025-8.647-14.324l-1.505.603c-10.819 4.186-16.81.496-23.881-3.863-4.21-2.593-8.83-5.44-15.166-6.8a60.542 60.542 0 0 0-1.291-.26l-.436-.082zm8.444-28.681a.963.963 0 0 1 .929-.996.962.962 0 0 1 1.004.92c.187 4.669.5 9.608-.342 12.55-.843 2.946-1.398 3.847-3.525 7.266a.973.973 0 0 1-1.331.312.952.952 0 0 1-.314-1.319c2.035-3.27 2.522-4.039 3.306-6.778.786-2.742.451-7.505.273-11.955zm-21.704 66.75c-3.08 0-5.864-1.305-7.874-3.41a11.733 11.733 0 0 1-3.22-8.115c0-1.31.217-2.583.619-3.785a11.594 11.594 0 0 1 1.73-3.296l15.973-26.61 6.085-11.042h-.009V13.437c-.472-1.142-1.385-2.382-2.016-3.237-.637-.859-1.09-1.477-1.09-2.192V4.046c0-1.031.425-1.968 1.107-2.643a3.777 3.777 0 0 1 2.665-1.1h34.615c1.032 0 1.973.42 2.659 1.1l.007.007a3.717 3.717 0 0 1 1.106 2.636v3.962c0 .668-.414 1.24-1.008 2.058-.636.879-1.614 2.229-2.098 3.432V44.35h-.01l6.086 11.042 15.972 26.61c.74.983 1.33 2.095 1.73 3.296a11.88 11.88 0 0 1 .62 3.785c0 3.158-1.231 6.029-3.22 8.114-2.012 2.106-4.795 3.41-7.874 3.41h-62.555z"/>
    </g>
</svg>
